<svg width="35" height="35" viewBox="0 0 35 35" fill="none" xmlns="http://www.w3.org/2000/svg">
<path d="M23.631 19.6061L19.1507 16.8532C19.0961 16.8196 19.0333 16.7969 18.97 16.7869L17.5673 16.5394C17.3078 16.4935 17.0529 16.6721 17.0072 16.9316C16.9614 17.191 17.1397 17.4459 17.3992 17.4917L18.7229 17.7252L23.1249 20.43C23.3398 20.5621 23.6345 20.4979 23.7771 20.2904C23.9301 20.0677 23.861 19.7476 23.631 19.6061Z" fill="#11234A" stroke="#11234A" stroke-width="0.5"/>
<path fill-rule="evenodd" clip-rule="evenodd" d="M33.1565 19.738C33.3516 19.5557 33.6575 19.5661 33.8399 19.7612C34.0222 19.9563 34.0119 20.2622 33.817 20.4446L31.5178 22.5932C31.3309 22.7679 31.0305 22.7639 30.8482 22.5841L29.8089 21.5587L28.6978 22.7196L29.0291 22.9232C29.983 23.5093 30.2822 24.7622 29.6961 25.7162C29.3132 26.3394 28.6455 26.6832 27.9627 26.6832C27.8062 26.6832 27.649 26.6639 27.4942 26.627C27.52 27.0408 27.419 27.4518 27.1974 27.8124C26.83 28.4104 26.1658 28.7807 25.4636 28.7807C25.3056 28.7807 25.1488 28.7609 24.9956 28.7242C25.0213 29.1377 24.9202 29.5484 24.6988 29.9087C24.3314 30.5067 23.6672 30.877 22.965 30.877C22.8065 30.877 22.6494 30.8572 22.4958 30.8202C22.5206 31.2227 22.4268 31.6361 22.2002 32.0049C22.0862 32.1905 21.9428 32.3577 21.7761 32.498C21.1149 33.0543 20.1427 33.1239 19.407 32.6719L19.1355 32.5051L18.8057 33.0395C18.6914 33.2249 18.5477 33.3919 18.3808 33.5318C17.7185 34.0869 16.746 34.1546 16.0113 33.7013C15.5058 33.3895 15.1612 32.8661 15.0707 32.2796C14.5058 32.4619 13.8835 32.3885 13.3781 32.0766C12.8725 31.7646 12.5278 31.241 12.4374 30.6543C11.8743 30.8365 11.2488 30.7628 10.7449 30.4519C10.2393 30.1399 9.89447 29.6163 9.80417 29.0295C9.24111 29.2118 8.61559 29.1381 8.11169 28.8271C7.15882 28.2392 6.86201 26.9857 7.44989 26.0329L7.65736 25.6966L5.77617 24.6424L5.05823 26.4771C4.96445 26.7169 4.68949 26.8428 4.44663 26.7567L1.3525 25.6609C1.10081 25.5717 0.968999 25.2954 1.05814 25.0437C1.14728 24.792 1.42352 24.6603 1.67528 24.7494L4.3283 25.689L8.62423 14.7108L1.33438 11.7948C1.08643 11.6957 0.965841 11.4143 1.06503 11.1664C1.16416 10.9184 1.44544 10.7977 1.69345 10.897L9.42886 13.9912C9.67546 14.0897 9.79631 14.3688 9.69956 14.6162L9.50388 15.1164L11.9238 15.5435C11.9365 15.5457 11.9488 15.5488 11.961 15.552L16.1681 13.6359C16.2428 13.6014 16.328 13.5873 16.4099 13.5942L21.7196 14.0514L21.9732 13.8275L21.1788 13.0439C20.9863 12.8538 20.9904 12.5318 21.1878 12.3469L33.1561 1.13066C33.3508 0.948129 33.6569 0.958055 33.8394 1.15283C34.0219 1.34761 34.012 1.65357 33.8172 1.83616L22.2158 12.7086L31.1965 21.5698L33.1565 19.738ZM8.61939 28.0043C9.11852 28.3121 9.7751 28.1566 10.0831 27.6576L12.7728 23.2985C13.0804 22.7999 12.939 22.0974 12.4266 21.7945C11.9314 21.5019 11.2829 21.6621 10.9806 22.1519L8.2727 26.5406C7.96481 27.0397 8.12027 27.6963 8.61939 28.0043ZM12.7162 29.2823C12.4083 29.7814 11.7517 29.9369 11.2526 29.629C10.7596 29.3247 10.6012 28.6592 10.9059 28.1653L13.0722 24.6544C13.3744 24.1646 14.0229 24.0044 14.5181 24.2969C15.0305 24.5998 15.172 25.3023 14.8643 25.801L12.7162 29.2823ZM14.6895 31.3835C14.9659 31.3181 15.2004 31.1488 15.3497 30.907L16.9561 28.3035C17.2637 27.8048 17.1223 27.1023 16.6099 26.7994C16.1148 26.5068 15.4662 26.667 15.164 27.1568L13.5392 29.7901C13.2345 30.2838 13.3929 30.9494 13.8859 31.2537C14.1276 31.4029 14.413 31.4491 14.6895 31.3835ZM19.0477 30.806L17.9828 32.5318C17.6785 33.0249 17.013 33.1831 16.5191 32.8785C16.0261 32.5742 15.8678 31.9086 16.1725 31.4148L17.2556 29.6594C17.5578 29.1696 18.2064 29.0092 18.7015 29.302C19.2139 29.6048 19.3553 30.3074 19.0477 30.806ZM25.4584 20.7291L27.8548 22.2017L29.1203 20.8794L22.663 14.5082L22.2042 14.9133C22.1154 14.9916 22.0015 15.0343 21.8842 15.0343C21.8704 15.0343 21.8566 15.0337 21.8427 15.0325L16.4533 14.5684L11.9226 16.6318C11.3889 16.8749 11.1525 17.5069 11.3955 18.0406C11.6386 18.5744 12.2707 18.8109 12.8043 18.5677L15.6357 17.2782C15.8755 17.1689 16.1669 17.2781 16.276 17.5178C16.3853 17.7576 16.2762 18.049 16.0365 18.1581L13.2052 19.4477C12.9331 19.5716 12.6476 19.6303 12.3666 19.6303C11.5948 19.6303 10.8558 19.1884 10.5156 18.4415C10.1869 17.7195 10.3181 16.9038 10.7846 16.3243L9.14436 16.0349L6.13195 23.7333L8.16596 24.8727L10.1582 21.6438C10.7351 20.709 11.9735 20.4029 12.919 20.9618C13.6806 21.4121 14.0476 22.3335 13.8482 23.19C14.2429 23.1634 14.6483 23.2502 15.0106 23.4643C15.7722 23.9146 16.1392 24.8361 15.9398 25.6925C16.3346 25.6659 16.7399 25.7527 17.1023 25.9668C17.5666 26.2413 17.895 26.6862 18.0266 27.2195C18.106 27.5412 18.1056 27.8767 18.0315 28.1951C18.4262 28.1685 18.8315 28.2552 19.1939 28.4694C19.6583 28.7439 19.9866 29.1887 20.1182 29.722C20.2516 30.2624 20.1615 30.8425 19.8708 31.3135L19.6435 31.682L19.9134 31.8479C20.4078 32.1516 21.0732 31.9921 21.3765 31.4985C21.6835 30.9988 21.5268 30.3425 21.0271 30.0354L20.3556 29.6228C20.1281 29.4831 20.057 29.1853 20.1968 28.9578C20.3278 28.7446 20.5977 28.6688 20.8184 28.7754C20.8332 28.7825 22.412 29.7517 22.412 29.7517C22.9064 30.0554 23.5717 29.8958 23.8751 29.4023C24.1788 28.9078 24.0192 28.2426 23.5257 27.9392L21.7304 26.8361C21.5029 26.6964 21.4318 26.3986 21.5716 26.1712C21.7113 25.9437 22.009 25.8725 22.2365 26.0123L24.9106 27.6554C25.4049 27.9591 26.0703 27.7997 26.3736 27.306C26.6774 26.8117 26.5178 26.1463 26.0242 25.843L23.0735 24.03C22.8461 23.8902 22.775 23.5924 22.9147 23.365C23.0544 23.1375 23.3522 23.0663 23.5797 23.2062L27.409 25.5592C27.9087 25.8662 28.5651 25.7095 28.8721 25.2098C29.1791 24.7101 29.0224 24.0539 28.5227 23.7468L24.9522 21.5529C24.73 21.4164 24.6568 21.1102 24.7934 20.8879C24.9299 20.6657 25.2361 20.5925 25.4584 20.7291Z" fill="#11234A"/>
<path d="M33.8399 19.7612L34.0225 19.5905L34.0225 19.5904L33.8399 19.7612ZM33.1565 19.738L32.9858 19.5553L32.9858 19.5554L33.1565 19.738ZM33.817 20.4446L33.9877 20.6272L33.9877 20.6271L33.817 20.4446ZM31.5178 22.5932L31.6885 22.7759L31.6885 22.7759L31.5178 22.5932ZM30.8482 22.5841L30.6726 22.7621L30.6726 22.7621L30.8482 22.5841ZM29.8089 21.5587L29.9845 21.3807L29.8038 21.2025L29.6283 21.3858L29.8089 21.5587ZM28.6978 22.7196L28.5172 22.5468L28.303 22.7705L28.5669 22.9326L28.6978 22.7196ZM29.0291 22.9232L29.1599 22.7102L29.1599 22.7102L29.0291 22.9232ZM29.6961 25.7162L29.9091 25.8471L29.9091 25.8471L29.6961 25.7162ZM27.4942 26.627L27.5521 26.3838L27.2236 26.3056L27.2447 26.6426L27.4942 26.627ZM27.1974 27.8124L26.9844 27.6815L26.9844 27.6815L27.1974 27.8124ZM24.9956 28.7242L25.054 28.4811L24.7252 28.4022L24.7461 28.7397L24.9956 28.7242ZM24.6988 29.9087L24.9118 30.0396L24.9119 30.0396L24.6988 29.9087ZM22.4958 30.8202L22.5543 30.5772L22.2255 30.4981L22.2463 30.8356L22.4958 30.8202ZM22.2002 32.0049L22.4132 32.1358L22.4132 32.1358L22.2002 32.0049ZM21.7761 32.498L21.9371 32.6893L21.9371 32.6893L21.7761 32.498ZM19.407 32.6719L19.5379 32.4589L19.5379 32.4589L19.407 32.6719ZM19.1355 32.5051L19.2664 32.2921L19.0538 32.1615L18.9227 32.3738L19.1355 32.5051ZM18.8057 33.0395L18.5929 32.9082L18.5929 32.9083L18.8057 33.0395ZM18.3808 33.5318L18.5413 33.7234L18.5414 33.7234L18.3808 33.5318ZM16.0113 33.7013L16.1426 33.4886L16.0113 33.7013ZM15.0707 32.2796L15.3178 32.2414L15.273 31.9516L14.9939 32.0417L15.0707 32.2796ZM13.3781 32.0766L13.2468 32.2894L13.2468 32.2894L13.3781 32.0766ZM12.4374 30.6543L12.6845 30.6162L12.6398 30.326L12.3604 30.4164L12.4374 30.6543ZM10.7449 30.4519L10.8762 30.2391L10.8762 30.2391L10.7449 30.4519ZM9.80417 29.0295L10.0513 28.9915L10.0066 28.7012L9.72717 28.7917L9.80417 29.0295ZM8.11169 28.8271L8.24297 28.6144L8.24297 28.6144L8.11169 28.8271ZM7.44989 26.0329L7.66265 26.1642L7.66266 26.1642L7.44989 26.0329ZM7.65736 25.6966L7.87014 25.8278L8.00702 25.6059L7.77958 25.4785L7.65736 25.6966ZM5.77617 24.6424L5.89839 24.4243L5.64797 24.284L5.54336 24.5513L5.77617 24.6424ZM5.05823 26.4771L4.82542 26.386L4.8254 26.386L5.05823 26.4771ZM4.44663 26.7567L4.53012 26.5211L4.53009 26.5211L4.44663 26.7567ZM1.3525 25.6609L1.43596 25.4252H1.43596L1.3525 25.6609ZM1.05814 25.0437L1.2938 25.1272L1.2938 25.1272L1.05814 25.0437ZM1.67528 24.7494L1.75874 24.5137L1.75867 24.5137L1.67528 24.7494ZM4.3283 25.689L4.24483 25.9247L4.47293 26.0055L4.56111 25.7801L4.3283 25.689ZM8.62423 14.7108L8.85704 14.8019L8.94746 14.5708L8.71708 14.4787L8.62423 14.7108ZM1.33438 11.7948L1.42723 11.5627L1.42719 11.5627L1.33438 11.7948ZM1.06503 11.1664L1.29714 11.2593L1.29717 11.2592L1.06503 11.1664ZM1.69345 10.897L1.60051 11.1291L1.60061 11.1292L1.69345 10.897ZM9.42886 13.9912L9.33601 14.2233L9.33608 14.2233L9.42886 13.9912ZM9.69956 14.6162L9.93238 14.7073L9.93239 14.7072L9.69956 14.6162ZM9.50388 15.1164L9.27106 15.0253L9.15987 15.3096L9.46043 15.3626L9.50388 15.1164ZM11.9238 15.5435L11.9676 15.2973L11.9673 15.2973L11.9238 15.5435ZM11.961 15.552L11.8986 15.7941L11.9842 15.8161L12.0646 15.7795L11.961 15.552ZM16.1681 13.6359L16.2717 13.8634L16.2729 13.8629L16.1681 13.6359ZM16.4099 13.5942L16.4314 13.3451L16.4311 13.3451L16.4099 13.5942ZM21.7196 14.0514L21.6982 14.3005L21.8048 14.3097L21.8851 14.2388L21.7196 14.0514ZM21.9732 13.8275L22.1387 14.0149L22.3394 13.8377L22.1488 13.6496L21.9732 13.8275ZM21.1788 13.0439L21.0032 13.2218L21.0032 13.2218L21.1788 13.0439ZM21.1878 12.3469L21.3587 12.5294L21.3587 12.5293L21.1878 12.3469ZM33.1561 1.13066L32.9851 0.948242L32.9851 0.948246L33.1561 1.13066ZM33.8394 1.15283L33.657 1.32378L33.8394 1.15283ZM33.8172 1.83616L33.9882 2.01858L33.9882 2.01855L33.8172 1.83616ZM22.2158 12.7086L22.0448 12.5262L21.8551 12.704L22.0402 12.8866L22.2158 12.7086ZM31.1965 21.5698L31.021 21.7477L31.1919 21.9164L31.3673 21.7524L31.1965 21.5698ZM10.0831 27.6576L10.2959 27.7889L10.2959 27.7888L10.0831 27.6576ZM8.61939 28.0043L8.48812 28.217L8.48816 28.217L8.61939 28.0043ZM12.7728 23.2985L12.9855 23.4298L12.9855 23.4298L12.7728 23.2985ZM12.4266 21.7945L12.5538 21.5793L12.5537 21.5792L12.4266 21.7945ZM10.9806 22.1519L11.1934 22.2832L11.1934 22.2832L10.9806 22.1519ZM8.2727 26.5406L8.05994 26.4093L8.05992 26.4093L8.2727 26.5406ZM11.2526 29.629L11.1213 29.8417L11.1214 29.8418L11.2526 29.629ZM12.7162 29.2823L12.5035 29.151L12.5035 29.151L12.7162 29.2823ZM10.9059 28.1653L11.1187 28.2966L11.1187 28.2966L10.9059 28.1653ZM13.0722 24.6544L12.8594 24.5231L12.8594 24.5231L13.0722 24.6544ZM14.5181 24.2969L14.6454 24.0817L14.6453 24.0817L14.5181 24.2969ZM14.8643 25.801L14.6515 25.6697L14.6515 25.6697L14.8643 25.801ZM15.3497 30.907L15.5624 31.0384L15.5624 31.0383L15.3497 30.907ZM14.6895 31.3835L14.6319 31.1403L14.6319 31.1403L14.6895 31.3835ZM16.9561 28.3035L17.1688 28.4347L17.1689 28.4347L16.9561 28.3035ZM16.6099 26.7994L16.7371 26.5842L16.7371 26.5841L16.6099 26.7994ZM15.164 27.1568L15.3767 27.2881L15.3767 27.2881L15.164 27.1568ZM13.5392 29.7901L13.752 29.9214L13.752 29.9213L13.5392 29.7901ZM13.8859 31.2537L13.7546 31.4665L13.7546 31.4665L13.8859 31.2537ZM17.9828 32.5318L18.1956 32.6631L18.1956 32.6631L17.9828 32.5318ZM19.0477 30.806L19.2605 30.9373L19.2605 30.9373L19.0477 30.806ZM16.5191 32.8785L16.3878 33.0912L16.3878 33.0912L16.5191 32.8785ZM16.1725 31.4148L16.3852 31.5461L16.3852 31.5461L16.1725 31.4148ZM17.2556 29.6594L17.0428 29.5281L17.0428 29.5281L17.2556 29.6594ZM18.7015 29.302L18.5743 29.5172L18.5743 29.5172L18.7015 29.302ZM27.8548 22.2017L27.724 22.4147L27.8959 22.5203L28.0355 22.3745L27.8548 22.2017ZM25.4584 20.7291L25.3275 20.9421L25.3275 20.9421L25.4584 20.7291ZM29.1203 20.8794L29.3009 21.0522L29.4711 20.8743L29.2958 20.7014L29.1203 20.8794ZM22.663 14.5082L22.8385 14.3303L22.6724 14.1664L22.4975 14.3208L22.663 14.5082ZM22.2042 14.9133L22.3695 15.1008L22.3696 15.1007L22.2042 14.9133ZM21.8427 15.0325L21.8647 14.7835L21.8642 14.7834L21.8427 15.0325ZM16.4533 14.5684L16.4747 14.3193L16.4094 14.3137L16.3497 14.3408L16.4533 14.5684ZM11.9226 16.6318L11.819 16.4043L11.819 16.4043L11.9226 16.6318ZM11.3955 18.0406L11.168 18.1443L11.168 18.1443L11.3955 18.0406ZM12.8043 18.5677L12.7007 18.3402L12.7007 18.3402L12.8043 18.5677ZM15.6357 17.2782L15.7393 17.5057L15.7394 17.5057L15.6357 17.2782ZM16.276 17.5178L16.0485 17.6214L16.0485 17.6215L16.276 17.5178ZM16.0365 18.1581L15.9329 17.9306L15.9328 17.9306L16.0365 18.1581ZM13.2052 19.4477L13.3088 19.6752L13.3088 19.6752L13.2052 19.4477ZM12.3666 19.6303V19.3803H12.3665L12.3666 19.6303ZM10.5156 18.4415L10.2881 18.5451L10.2881 18.5451L10.5156 18.4415ZM10.7846 16.3243L10.9793 16.4811L11.2446 16.1516L10.828 16.0781L10.7846 16.3243ZM9.14436 16.0349L9.18781 15.7887L8.98617 15.7531L8.91155 15.9438L9.14436 16.0349ZM6.13195 23.7333L5.89914 23.6422L5.81979 23.845L6.00977 23.9514L6.13195 23.7333ZM8.16596 24.8727L8.04378 25.0908L8.25288 25.2079L8.37872 25.004L8.16596 24.8727ZM10.1582 21.6438L9.94546 21.5126L9.94545 21.5126L10.1582 21.6438ZM12.919 20.9618L13.0462 20.7466L13.0462 20.7466L12.919 20.9618ZM13.8482 23.19L13.6047 23.1333L13.5282 23.4621L13.865 23.4394L13.8482 23.19ZM15.0106 23.4643L15.1379 23.2491L15.1378 23.2491L15.0106 23.4643ZM15.9398 25.6925L15.6964 25.6358L15.6198 25.9647L15.9567 25.942L15.9398 25.6925ZM17.1023 25.9668L17.2295 25.7516L17.2295 25.7516L17.1023 25.9668ZM18.0266 27.2195L17.7839 27.2794L17.7839 27.2794L18.0266 27.2195ZM18.0315 28.1951L17.788 28.1384L17.7114 28.4673L18.0483 28.4445L18.0315 28.1951ZM19.1939 28.4694L19.3211 28.2541L19.3211 28.2541L19.1939 28.4694ZM20.1182 29.722L19.8755 29.7819L19.8755 29.7819L20.1182 29.722ZM19.8708 31.3135L19.6581 31.1822L19.6581 31.1822L19.8708 31.3135ZM19.6435 31.682L19.4308 31.5507L19.2993 31.7638L19.5126 31.8949L19.6435 31.682ZM19.9134 31.8479L19.7825 32.0608L19.7826 32.0609L19.9134 31.8479ZM21.3765 31.4985L21.5895 31.6293L21.5895 31.6293L21.3765 31.4985ZM21.0271 30.0354L21.158 29.8224L21.158 29.8224L21.0271 30.0354ZM20.3556 29.6228L20.4865 29.4098L20.4865 29.4098L20.3556 29.6228ZM20.1968 28.9578L20.4098 29.0887L20.4098 29.0887L20.1968 28.9578ZM20.8184 28.7754L20.7097 29.0005L20.7102 29.0007L20.8184 28.7754ZM22.412 29.7517L22.5429 29.5387L22.5428 29.5386L22.412 29.7517ZM23.8751 29.4023L24.0881 29.5331L24.0881 29.5331L23.8751 29.4023ZM23.5257 27.9392L23.6566 27.7262L23.6565 27.7262L23.5257 27.9392ZM21.7304 26.8361L21.8613 26.6231L21.8612 26.6231L21.7304 26.8361ZM21.5716 26.1712L21.3586 26.0403H21.3586L21.5716 26.1712ZM22.2365 26.0123L22.3674 25.7993L22.3674 25.7993L22.2365 26.0123ZM24.9106 27.6554L24.7797 27.8684L24.7797 27.8685L24.9106 27.6554ZM26.3736 27.306L26.1606 27.1752L26.1606 27.1752L26.3736 27.306ZM26.0242 25.843L25.8933 26.056L25.8933 26.056L26.0242 25.843ZM23.0735 24.03L23.2044 23.8169L23.2044 23.8169L23.0735 24.03ZM22.9147 23.365L22.7017 23.2341H22.7017L22.9147 23.365ZM23.5797 23.2062L23.4487 23.4191L23.4488 23.4192L23.5797 23.2062ZM27.409 25.5592L27.2781 25.7722L27.2782 25.7722L27.409 25.5592ZM28.8721 25.2098L29.0851 25.3407L29.0851 25.3407L28.8721 25.2098ZM28.5227 23.7468L28.6536 23.5338L28.6536 23.5338L28.5227 23.7468ZM24.9522 21.5529L25.0831 21.3399L25.0831 21.3399L24.9522 21.5529ZM24.7934 20.8879L25.0064 21.0188L25.0064 21.0188L24.7934 20.8879ZM34.0225 19.5904C33.7458 19.2945 33.2818 19.2788 32.9858 19.5553L33.3272 19.9207C33.4214 19.8327 33.5691 19.8376 33.6573 19.9319L34.0225 19.5904ZM33.9877 20.6271C34.2835 20.3505 34.2991 19.8864 34.0225 19.5905L33.6573 19.9319C33.7453 20.0261 33.7403 20.1739 33.6462 20.262L33.9877 20.6271ZM31.6885 22.7759L33.9877 20.6272L33.6463 20.2619L31.3471 22.4106L31.6885 22.7759ZM30.6726 22.7621C30.9504 23.0361 31.4036 23.0421 31.6885 22.7759L31.3472 22.4105C31.2582 22.4937 31.1105 22.4917 31.0237 22.4061L30.6726 22.7621ZM29.6333 21.7367L30.6726 22.7621L31.0238 22.4062L29.9845 21.3807L29.6333 21.7367ZM28.8784 22.8925L29.9895 21.7316L29.6283 21.3858L28.5172 22.5468L28.8784 22.8925ZM29.1599 22.7102L28.8286 22.5066L28.5669 22.9326L28.8982 23.1362L29.1599 22.7102ZM29.9091 25.8471C30.5675 24.7755 30.2315 23.3686 29.1599 22.7102L28.8982 23.1362C29.7345 23.65 29.9969 24.749 29.4831 25.5853L29.9091 25.8471ZM27.9627 26.9332C28.7284 26.9332 29.4787 26.5476 29.9091 25.8471L29.4831 25.5853C29.1477 26.1312 28.5626 26.4332 27.9627 26.4332V26.9332ZM27.4363 26.8702C27.609 26.9114 27.7857 26.9332 27.9627 26.9332V26.4332C27.8267 26.4332 27.6889 26.4164 27.5521 26.3838L27.4363 26.8702ZM27.4104 27.9433C27.6589 27.5388 27.7727 27.0766 27.7437 26.6114L27.2447 26.6426C27.2673 27.005 27.179 27.3649 26.9844 27.6815L27.4104 27.9433ZM25.4636 29.0307C26.2524 29.0307 26.9974 28.6155 27.4104 27.9433L26.9844 27.6815C26.6627 28.2052 26.0792 28.5307 25.4636 28.5307V29.0307ZM24.9373 28.9673C25.1084 29.0083 25.2848 29.0307 25.4636 29.0307V28.5307C25.3264 28.5307 25.1892 28.5135 25.054 28.4811L24.9373 28.9673ZM24.9119 30.0396C25.1601 29.6354 25.274 29.1736 25.2452 28.7087L24.7461 28.7397C24.7686 29.1018 24.6802 29.4614 24.4858 29.7779L24.9119 30.0396ZM22.965 31.127C23.7538 31.127 24.4988 30.7119 24.9118 30.0396L24.4858 29.7778C24.164 30.3016 23.5806 30.627 22.965 30.627V31.127ZM22.4374 31.0633C22.6088 31.1045 22.7856 31.127 22.965 31.127V30.627C22.8274 30.627 22.6899 30.6098 22.5543 30.5772L22.4374 31.0633ZM22.4132 32.1358C22.6678 31.7214 22.7731 31.2566 22.7454 30.8049L22.2463 30.8356C22.268 31.1887 22.1858 31.5507 21.9872 31.8741L22.4132 32.1358ZM21.9371 32.6893C22.1246 32.5315 22.2854 32.3438 22.4132 32.1358L21.9872 31.8741C21.8869 32.0372 21.7611 32.184 21.6152 32.3067L21.9371 32.6893ZM19.2762 32.8849C20.1031 33.393 21.193 33.3153 21.9371 32.6893L21.6152 32.3067C21.0369 32.7932 20.1823 32.8548 19.5379 32.4589L19.2762 32.8849ZM19.0046 32.7181L19.2762 32.8849L19.5379 32.4589L19.2664 32.2921L19.0046 32.7181ZM19.0184 33.1708L19.3483 32.6364L18.9227 32.3738L18.5929 32.9082L19.0184 33.1708ZM18.5414 33.7234C18.7291 33.566 18.8903 33.3786 19.0185 33.1708L18.5929 32.9083C18.4924 33.0712 18.3663 33.2178 18.2202 33.3402L18.5414 33.7234ZM15.8801 33.9141C16.7059 34.4236 17.796 34.3481 18.5413 33.7234L18.2202 33.3402C17.6409 33.8257 16.7861 33.8856 16.1426 33.4886L15.8801 33.9141ZM14.8236 32.3177C14.9252 32.976 15.3117 33.5635 15.8801 33.9141L16.1426 33.4886C15.6999 33.2154 15.3972 32.7562 15.3178 32.2414L14.8236 32.3177ZM13.2468 32.2894C13.815 32.64 14.5134 32.7221 15.1475 32.5175L14.9939 32.0417C14.4981 32.2017 13.952 32.137 13.5094 31.8638L13.2468 32.2894ZM12.1903 30.6923C12.2917 31.3509 12.6784 31.9386 13.2468 32.2894L13.5094 31.8639C13.0666 31.5906 12.7638 31.1312 12.6845 30.6162L12.1903 30.6923ZM10.6136 30.6646C11.1803 31.0143 11.882 31.0968 12.5144 30.8921L12.3604 30.4164C11.8666 30.5763 11.3173 30.5113 10.8762 30.2391L10.6136 30.6646ZM9.55708 29.0675C9.65843 29.7262 10.0452 30.3139 10.6137 30.6646L10.8762 30.2391C10.4334 29.9659 10.1305 29.5064 10.0513 28.9915L9.55708 29.0675ZM7.98042 29.0399C8.54711 29.3896 9.24882 29.4721 9.88117 29.2674L9.72717 28.7917C9.23339 28.9515 8.68407 28.8865 8.24297 28.6144L7.98042 29.0399ZM7.23713 25.9016C6.57676 26.9719 6.91003 28.3794 7.98042 29.0399L8.24297 28.6144C7.40761 28.0989 7.14727 26.9995 7.66265 26.1642L7.23713 25.9016ZM7.44459 25.5653L7.23712 25.9016L7.66266 26.1642L7.87014 25.8278L7.44459 25.5653ZM5.65396 24.8605L7.53515 25.9147L7.77958 25.4785L5.89839 24.4243L5.65396 24.8605ZM5.29104 26.5682L6.00898 24.7335L5.54336 24.5513L4.82542 26.386L5.29104 26.5682ZM4.36314 26.9924C4.73328 27.1235 5.14816 26.9335 5.29105 26.5682L4.8254 26.386C4.78073 26.5003 4.6457 26.562 4.53012 26.5211L4.36314 26.9924ZM1.26903 25.8965L4.36317 26.9924L4.53009 26.5211L1.43596 25.4252L1.26903 25.8965ZM0.822481 24.9603C0.687241 25.3421 0.887217 25.7613 1.26904 25.8965L1.43596 25.4252C1.3144 25.3822 1.25076 25.2487 1.2938 25.1272L0.822481 24.9603ZM1.75867 24.5137C1.37687 24.3786 0.957726 24.5783 0.822474 24.9603L1.2938 25.1272C1.33683 25.0057 1.47017 24.942 1.59189 24.9851L1.75867 24.5137ZM4.41176 25.4534L1.75874 24.5137L1.59181 24.985L4.24483 25.9247L4.41176 25.4534ZM8.39142 14.6197L4.09549 25.5979L4.56111 25.7801L8.85704 14.8019L8.39142 14.6197ZM1.24154 12.0269L8.53138 14.9429L8.71708 14.4787L1.42723 11.5627L1.24154 12.0269ZM0.832928 11.0735C0.682429 11.4496 0.865391 11.8766 1.24158 12.027L1.42719 11.5627C1.30748 11.5148 1.24925 11.3789 1.29714 11.2593L0.832928 11.0735ZM1.78639 10.665C1.41002 10.5142 0.983251 10.6975 0.832899 11.0736L1.29717 11.2592C1.34508 11.1394 1.48086 11.0812 1.60051 11.1291L1.78639 10.665ZM9.52171 13.7591L1.7863 10.6649L1.60061 11.1292L9.33601 14.2233L9.52171 13.7591ZM9.93239 14.7072C10.0791 14.332 9.89586 13.9086 9.52163 13.759L9.33608 14.2233C9.45505 14.2709 9.51349 14.4056 9.46673 14.5251L9.93239 14.7072ZM9.7367 15.2075L9.93238 14.7073L9.46674 14.5251L9.27106 15.0253L9.7367 15.2075ZM11.9673 15.2973L9.54733 14.8702L9.46043 15.3626L11.8804 15.7897L11.9673 15.2973ZM12.0235 15.3099C12.0115 15.3068 11.9908 15.3015 11.9676 15.2973L11.8801 15.7896C11.8823 15.79 11.8861 15.7908 11.8986 15.7941L12.0235 15.3099ZM16.0645 13.4084L11.8574 15.3245L12.0646 15.7795L16.2717 13.8634L16.0645 13.4084ZM16.4311 13.3451C16.3077 13.3346 16.1789 13.3555 16.0632 13.409L16.2729 13.8629C16.3068 13.8472 16.3483 13.8399 16.3887 13.8433L16.4311 13.3451ZM21.7411 13.8024L16.4314 13.3451L16.3885 13.8433L21.6982 14.3005L21.7411 13.8024ZM21.8077 13.6401L21.5541 13.8641L21.8851 14.2388L22.1387 14.0149L21.8077 13.6401ZM21.0032 13.2218L21.7976 14.0055L22.1488 13.6496L21.3544 12.8659L21.0032 13.2218ZM21.0168 12.1645C20.7159 12.4465 20.7097 12.9321 21.0032 13.2218L21.3544 12.8659C21.2628 12.7755 21.2649 12.6172 21.3587 12.5294L21.0168 12.1645ZM32.9851 0.948246L21.0168 12.1645L21.3587 12.5293L33.327 1.31308L32.9851 0.948246ZM34.0218 0.981884C33.7449 0.686354 33.2806 0.671304 32.9851 0.948242L33.327 1.31308C33.421 1.22495 33.5689 1.22976 33.657 1.32378L34.0218 0.981884ZM33.9882 2.01855C34.2837 1.74156 34.2988 1.27742 34.0218 0.981884L33.657 1.32378C33.7451 1.4178 33.7403 1.56557 33.6462 1.65378L33.9882 2.01855ZM22.3867 12.891L33.9882 2.01858L33.6463 1.65375L22.0448 12.5262L22.3867 12.891ZM31.3721 21.3918L22.3914 12.5307L22.0402 12.8866L31.021 21.7477L31.3721 21.3918ZM32.9858 19.5554L31.0258 21.3871L31.3673 21.7524L33.3272 19.9207L32.9858 19.5554ZM9.87038 27.5263C9.63487 27.9078 9.13228 28.0269 8.75063 27.7915L8.48816 28.217C9.10475 28.5973 9.91533 28.4054 10.2959 27.7889L9.87038 27.5263ZM12.56 23.1673L9.87036 27.5263L10.2959 27.7888L12.9855 23.4298L12.56 23.1673ZM12.2993 22.0097C12.6814 22.2355 12.8004 22.7776 12.56 23.1673L12.9855 23.4298C13.3604 22.8221 13.1966 21.9593 12.5538 21.5793L12.2993 22.0097ZM11.1934 22.2832C11.4241 21.9092 11.9215 21.7865 12.2994 22.0097L12.5537 21.5792C11.9412 21.2174 11.1416 21.4149 10.7679 22.0206L11.1934 22.2832ZM8.48546 26.6719L11.1934 22.2832L10.7679 22.0206L8.05994 26.4093L8.48546 26.6719ZM8.75066 27.7915C8.36907 27.5561 8.25005 27.0535 8.48547 26.6718L8.05992 26.4093C7.67957 27.0259 7.87147 27.8366 8.48812 28.217L8.75066 27.7915ZM11.1214 29.8418C11.7379 30.2221 12.5486 30.0301 12.929 29.4136L12.5035 29.151C12.2681 29.5326 11.7655 29.6516 11.3839 29.4162L11.1214 29.8418ZM10.6932 28.034C10.3158 28.6455 10.5109 29.4651 11.1213 29.8417L11.3839 29.4162C11.0082 29.1844 10.8866 28.6728 11.1187 28.2966L10.6932 28.034ZM12.8594 24.5231L10.6932 28.0341L11.1187 28.2966L13.285 24.7856L12.8594 24.5231ZM14.6453 24.0817C14.0328 23.7198 13.2331 23.9175 12.8594 24.5231L13.285 24.7857C13.5157 24.4117 14.0131 24.2889 14.391 24.5122L14.6453 24.0817ZM15.077 25.9323C15.452 25.3246 15.2882 24.4617 14.6454 24.0817L14.3909 24.5121C14.7729 24.738 14.8919 25.2801 14.6515 25.6697L15.077 25.9323ZM12.929 29.4136L15.077 25.9323L14.6515 25.6697L12.5035 29.151L12.929 29.4136ZM15.1369 30.7757C15.0225 30.9611 14.8437 31.0901 14.6319 31.1403L14.7472 31.6268C15.088 31.546 15.3783 31.3365 15.5624 31.0384L15.1369 30.7757ZM16.7433 28.1722L15.1369 30.7758L15.5624 31.0383L17.1688 28.4347L16.7433 28.1722ZM16.4827 27.0146C16.8647 27.2404 16.9837 27.7825 16.7433 28.1722L17.1689 28.4347C17.5437 27.827 17.3799 26.9642 16.7371 26.5842L16.4827 27.0146ZM15.3767 27.2881C15.6075 26.9141 16.1049 26.7914 16.4827 27.0146L16.7371 26.5841C16.1246 26.2223 15.3249 26.4198 14.9512 27.0256L15.3767 27.2881ZM13.752 29.9213L15.3767 27.2881L14.9512 27.0256L13.3265 29.6588L13.752 29.9213ZM14.0172 31.041C13.6415 30.8091 13.5199 30.2975 13.752 29.9214L13.3265 29.6588C12.9491 30.2702 13.1442 31.0898 13.7546 31.4665L14.0172 31.041ZM14.6319 31.1403C14.4199 31.1905 14.2025 31.1553 14.0171 31.041L13.7546 31.4665C14.0527 31.6504 14.406 31.7077 14.7472 31.6268L14.6319 31.1403ZM18.1956 32.6631L19.2605 30.9373L18.835 30.6748L17.7701 32.4006L18.1956 32.6631ZM16.3878 33.0912C16.9993 33.4684 17.8188 33.2736 18.1956 32.6631L17.7701 32.4005C17.5382 32.7762 17.0267 32.8978 16.6503 32.6657L16.3878 33.0912ZM15.9597 31.2835C15.5825 31.8949 15.7774 32.7146 16.3878 33.0912L16.6504 32.6657C16.2748 32.4339 16.1531 31.9222 16.3852 31.5461L15.9597 31.2835ZM17.0428 29.5281L15.9597 31.2835L16.3852 31.5461L17.4684 29.7906L17.0428 29.5281ZM18.8288 29.0868C18.2162 28.7246 17.4165 28.9226 17.0428 29.5281L17.4683 29.7906C17.6991 29.4167 18.1966 29.2938 18.5743 29.5172L18.8288 29.0868ZM19.2605 30.9373C19.6354 30.3296 19.4716 29.4667 18.8287 29.0867L18.5743 29.5172C18.9563 29.743 19.0753 30.2851 18.8349 30.6748L19.2605 30.9373ZM27.9857 21.9887L25.5892 20.5161L25.3275 20.9421L27.724 22.4147L27.9857 21.9887ZM28.9396 20.7065L27.6742 22.0288L28.0355 22.3745L29.3009 21.0522L28.9396 20.7065ZM22.4874 14.6862L28.9447 21.0573L29.2958 20.7014L22.8385 14.3303L22.4874 14.6862ZM22.3696 15.1007L22.8284 14.6956L22.4975 14.3208L22.0387 14.7259L22.3696 15.1007ZM21.8842 15.2843C22.0623 15.2843 22.235 15.2195 22.3695 15.1008L22.0388 14.7258C21.9959 14.7637 21.9408 14.7843 21.8842 14.7843V15.2843ZM21.8207 15.2815C21.8422 15.2834 21.8634 15.2843 21.8842 15.2843V14.7843C21.8774 14.7843 21.8709 14.784 21.8647 14.7835L21.8207 15.2815ZM16.4318 14.8174L21.8213 15.2816L21.8642 14.7834L16.4747 14.3193L16.4318 14.8174ZM12.0262 16.8593L16.5569 14.7959L16.3497 14.3408L11.819 16.4043L12.0262 16.8593ZM11.623 17.937C11.4372 17.5289 11.6182 17.0452 12.0262 16.8593L11.819 16.4043C11.1596 16.7047 10.8677 17.4849 11.168 18.1443L11.623 17.937ZM12.7007 18.3402C12.2928 18.5261 11.8089 18.3451 11.623 17.937L11.168 18.1443C11.4683 18.8036 12.2487 19.0956 12.908 18.7952L12.7007 18.3402ZM15.5321 17.0507L12.7007 18.3402L12.908 18.7953L15.7393 17.5057L15.5321 17.0507ZM16.5035 17.4142C16.3372 17.0489 15.8976 16.8841 15.532 17.0508L15.7394 17.5057C15.8534 17.4538 15.9965 17.5073 16.0485 17.6214L16.5035 17.4142ZM16.1401 18.3857C16.5055 18.2193 16.6701 17.7796 16.5035 17.4141L16.0485 17.6215C16.1005 17.7355 16.047 17.8787 15.9329 17.9306L16.1401 18.3857ZM13.3088 19.6752L16.1401 18.3857L15.9328 17.9306L13.1015 19.2202L13.3088 19.6752ZM12.3666 19.8803C12.6826 19.8803 13.0035 19.8143 13.3088 19.6752L13.1016 19.2202C12.8627 19.3289 12.6127 19.3803 12.3666 19.3803V19.8803ZM10.2881 18.5451C10.6705 19.3846 11.5007 19.8803 12.3666 19.8803L12.3665 19.3803C11.6889 19.3803 11.0411 18.9921 10.7431 18.3379L10.2881 18.5451ZM10.5898 16.1675C10.0666 16.8174 9.91855 17.7335 10.2881 18.5451L10.7431 18.3379C10.4552 17.7056 10.5695 16.9901 10.9793 16.4811L10.5898 16.1675ZM9.10091 16.2811L10.7411 16.5705L10.828 16.0781L9.18781 15.7887L9.10091 16.2811ZM6.36476 23.8244L9.37717 16.126L8.91155 15.9438L5.89914 23.6422L6.36476 23.8244ZM8.28814 24.6546L6.25413 23.5152L6.00977 23.9514L8.04378 25.0908L8.28814 24.6546ZM9.94545 21.5126L7.9532 24.7414L8.37872 25.004L10.371 21.7751L9.94545 21.5126ZM13.0462 20.7466C11.9834 20.1183 10.5938 20.4619 9.94546 21.5126L10.371 21.7751C10.8763 20.9561 11.9637 20.6875 12.7918 21.177L13.0462 20.7466ZM14.0917 23.2467C14.3145 22.2895 13.9066 21.2552 13.0462 20.7466L12.7918 21.177C13.4546 21.5689 13.7806 22.3776 13.6047 23.1333L14.0917 23.2467ZM15.1378 23.2491C14.73 23.0081 14.2741 22.9108 13.8314 22.9406L13.865 23.4394C14.2118 23.4161 14.5666 23.4923 14.8834 23.6795L15.1378 23.2491ZM16.1833 25.7492C16.4061 24.792 15.9982 23.7578 15.1379 23.2491L14.8834 23.6795C15.5462 24.0714 15.8723 24.8801 15.6964 25.6358L16.1833 25.7492ZM17.2295 25.7516C16.8216 25.5105 16.3657 25.4132 15.923 25.4431L15.9567 25.942C16.3034 25.9186 16.6582 25.9948 16.9751 26.1821L17.2295 25.7516ZM18.2693 27.1596C18.1219 26.5624 17.7528 26.061 17.2295 25.7516L16.975 26.182C17.3805 26.4217 17.668 26.81 17.7839 27.2794L18.2693 27.1596ZM18.275 28.2518C18.3578 27.8961 18.3584 27.5206 18.2693 27.1596L17.7839 27.2794C17.8536 27.5618 17.8534 27.8573 17.788 28.1384L18.275 28.2518ZM19.3211 28.2541C18.9132 28.0131 18.4573 27.9158 18.0147 27.9457L18.0483 28.4445C18.3951 28.4212 18.7498 28.4974 19.0667 28.6846L19.3211 28.2541ZM20.3609 29.6621C20.2136 29.0649 19.8444 28.5635 19.3211 28.2541L19.0667 28.6846C19.4721 28.9242 19.7596 29.3125 19.8755 29.7819L20.3609 29.6621ZM20.0836 31.4448C20.4097 30.9162 20.5103 30.2672 20.3609 29.6621L19.8755 29.7819C19.9929 30.2575 19.9132 30.7687 19.6581 31.1822L20.0836 31.4448ZM19.8563 31.8132L20.0836 31.4447L19.6581 31.1822L19.4308 31.5507L19.8563 31.8132ZM20.0444 31.6349L19.7744 31.469L19.5126 31.8949L19.7825 32.0608L20.0444 31.6349ZM21.1635 31.3676C20.9324 31.7437 20.4209 31.8662 20.0443 31.6348L19.7826 32.0609C20.3947 32.4369 21.2139 32.2405 21.5895 31.6293L21.1635 31.3676ZM20.8962 30.2484C21.2782 30.4832 21.3982 30.9855 21.1635 31.3676L21.5895 31.6293C21.9687 31.012 21.7753 30.2018 21.158 29.8224L20.8962 30.2484ZM20.2247 29.8358L20.8963 30.2484L21.158 29.8224L20.4865 29.4098L20.2247 29.8358ZM19.9838 28.827C19.7718 29.172 19.8796 29.6238 20.2247 29.8358L20.4865 29.4098C20.3767 29.3424 20.3423 29.1986 20.4098 29.0887L19.9838 28.827ZM20.9272 28.5503C20.5921 28.3884 20.1826 28.5033 19.9838 28.827L20.4098 29.0887C20.4729 28.986 20.6033 28.9491 20.7097 29.0005L20.9272 28.5503ZM22.412 29.7517C22.5428 29.5386 22.5428 29.5386 22.5428 29.5386C22.5428 29.5386 22.5428 29.5386 22.5428 29.5385C22.5427 29.5385 22.5426 29.5385 22.5425 29.5384C22.5423 29.5383 22.5421 29.5381 22.5417 29.5379C22.5409 29.5374 22.5398 29.5367 22.5383 29.5358C22.5353 29.534 22.5309 29.5313 22.5251 29.5277C22.5135 29.5206 22.4965 29.5102 22.4749 29.4969C22.4317 29.4704 22.37 29.4325 22.2959 29.387C22.1476 29.296 21.9498 29.1747 21.7515 29.0531C21.5532 28.9315 21.3544 28.8096 21.2042 28.7177C21.1291 28.6717 21.0661 28.6332 21.0213 28.6059C20.9989 28.5923 20.9809 28.5813 20.9682 28.5736C20.9619 28.5698 20.9565 28.5666 20.9524 28.5641C20.9505 28.563 20.9483 28.5617 20.9463 28.5605C20.9453 28.5599 20.9437 28.559 20.9419 28.558C20.941 28.5575 20.9395 28.5566 20.9377 28.5556C20.9365 28.555 20.9322 28.5527 20.9267 28.55L20.7102 29.0007C20.6974 28.9946 20.6852 28.9869 20.6962 28.9935C20.6989 28.9951 20.7033 28.9977 20.7093 29.0014C20.7214 29.0087 20.7388 29.0193 20.761 29.0328C20.8054 29.0599 20.8681 29.0982 20.9432 29.1441C21.0932 29.2359 21.2918 29.3577 21.4901 29.4793C21.6883 29.6009 21.8861 29.7222 22.0344 29.8132C22.1085 29.8587 22.1702 29.8965 22.2134 29.9231C22.235 29.9363 22.252 29.9467 22.2635 29.9538C22.2693 29.9574 22.2737 29.9601 22.2767 29.9619C22.2782 29.9629 22.2794 29.9635 22.2801 29.964C22.2805 29.9642 22.2808 29.9644 22.281 29.9645C22.2811 29.9646 22.2811 29.9646 22.2812 29.9647C22.2812 29.9647 22.2812 29.9647 22.2812 29.9647C22.2812 29.9647 22.2812 29.9647 22.412 29.7517ZM23.6621 29.2714C23.4309 29.6474 22.9195 29.77 22.5429 29.5387L22.2812 29.9647C22.8933 30.3408 23.7125 30.1442 24.0881 29.5331L23.6621 29.2714ZM23.3947 28.1522C23.7709 28.3834 23.8935 28.8947 23.6621 29.2714L24.0881 29.5331C24.4642 28.9209 24.2676 28.1018 23.6566 27.7262L23.3947 28.1522ZM21.5995 27.0491L23.3948 28.1522L23.6565 27.7262L21.8613 26.6231L21.5995 27.0491ZM21.3586 26.0403C21.1466 26.3854 21.2544 26.8371 21.5995 27.0491L21.8612 26.6231C21.7515 26.5557 21.7171 26.4119 21.7846 26.302L21.3586 26.0403ZM22.3674 25.7993C22.0222 25.5872 21.5706 25.6952 21.3586 26.0403L21.7846 26.302C21.852 26.1922 21.9958 26.1578 22.1057 26.2253L22.3674 25.7993ZM25.0414 27.4424L22.3674 25.7993L22.1056 26.2253L24.7797 27.8684L25.0414 27.4424ZM26.1606 27.1752C25.9295 27.5513 25.4181 27.6738 25.0414 27.4424L24.7797 27.8685C25.3918 28.2445 26.211 28.0481 26.5866 27.4369L26.1606 27.1752ZM25.8933 26.056C26.2694 26.2871 26.392 26.7986 26.1606 27.1752L26.5866 27.4369C26.9627 26.8248 26.7662 26.0055 26.1551 25.63L25.8933 26.056ZM22.9426 24.243L25.8933 26.056L26.1551 25.63L23.2044 23.8169L22.9426 24.243ZM22.7017 23.2341C22.4897 23.5792 22.5975 24.0309 22.9427 24.243L23.2044 23.8169C23.0946 23.7495 23.0602 23.6057 23.1277 23.4959L22.7017 23.2341ZM23.7106 22.9932C23.3654 22.781 22.9137 22.8891 22.7017 23.2341L23.1277 23.4959C23.1952 23.386 23.339 23.3517 23.4487 23.4191L23.7106 22.9932ZM27.5399 25.3462L23.7106 22.9932L23.4488 23.4192L27.2781 25.7722L27.5399 25.3462ZM28.6591 25.0789C28.4243 25.461 27.922 25.5809 27.5399 25.3462L27.2782 25.7722C27.8955 26.1515 28.7058 25.958 29.0851 25.3407L28.6591 25.0789ZM28.3918 23.9598C28.7738 24.1946 28.8938 24.6969 28.6591 25.079L29.0851 25.3407C29.4644 24.7234 29.2709 23.9132 28.6536 23.5338L28.3918 23.9598ZM24.8213 21.7659L28.3918 23.9598L28.6536 23.5338L25.0831 21.3399L24.8213 21.7659ZM24.5804 20.757C24.3715 21.0969 24.4814 21.5571 24.8213 21.7659L25.0831 21.3399C24.9785 21.2756 24.9421 21.1234 25.0064 21.0188L24.5804 20.757ZM25.5892 20.5161C25.2494 20.3072 24.7892 20.4172 24.5804 20.7571L25.0064 21.0188C25.0706 20.9142 25.2229 20.8778 25.3275 20.9421L25.5892 20.5161Z" fill="#11234A"/>
</svg>
