<svg width="37" height="35" viewBox="0 0 37 35" fill="none" xmlns="http://www.w3.org/2000/svg">
<path fill-rule="evenodd" clip-rule="evenodd" d="M34.5038 1.05566H10.0622C9.24106 1.05662 8.57565 1.72203 8.57469 2.54316V9.28477L7.45701 7.60825C6.94541 6.83654 5.91654 6.60501 5.1237 7.08325L2.82423 8.46575C2.07118 8.90763 1.51877 9.62417 1.28307 10.4649C0.444231 13.5192 1.06664 18.7815 8.79057 26.5065C14.933 32.6426 19.5127 34.2952 22.6692 34.2952C23.3999 34.2986 24.1279 34.2036 24.8334 34.0129C25.6737 33.7772 26.3902 33.2255 26.833 32.4735L28.2137 30.1716C28.6901 29.3794 28.4587 28.3527 27.6887 27.8412L22.1826 24.1708C21.4273 23.6713 20.4149 23.8355 19.8563 24.5483L18.2533 26.6091C18.0857 26.8297 17.7818 26.8939 17.5393 26.7602L17.2342 26.5922C16.2303 26.045 14.9808 25.3637 12.4573 22.8402C12.1843 22.5672 11.9369 22.3117 11.7048 22.0673H34.5038C35.3229 22.0679 35.9881 21.4058 35.9913 20.5868V2.54316C35.9904 1.72203 35.3249 1.05662 34.5038 1.05566ZM16.676 27.6166L16.9723 27.7794C17.7172 28.1959 18.6549 28.0027 19.1744 27.3256L20.7774 25.2647C20.9596 25.0325 21.2894 24.979 21.5357 25.1415L27.0418 28.8119C27.2919 28.9786 27.3671 29.3124 27.2127 29.5702L25.8319 31.8721C25.5436 32.3665 25.0751 32.7302 24.5247 32.8871C21.7673 33.6454 16.9414 33.0038 9.61703 25.6788C2.29267 18.3539 1.65344 13.5285 2.40997 10.7734C2.56672 10.2231 2.93019 9.75467 3.42436 9.46619L5.72622 8.08485C5.98414 7.93077 6.31767 8.0059 6.48453 8.25575L10.1566 13.7618C10.3194 14.0081 10.2659 14.3381 10.0335 14.5201L7.97197 16.1237C7.295 16.643 7.10168 17.5805 7.51813 18.3252L7.68144 18.6216L7.68248 18.6235C8.26561 19.693 8.9914 21.0241 11.633 23.665C14.2753 26.3068 15.6059 27.0328 16.675 27.6161L16.676 27.6166ZM34.5039 20.9018C34.6793 20.9031 34.8228 20.7623 34.8247 20.5868H34.8246V2.54316C34.8256 2.45778 34.7921 2.37562 34.7317 2.31525C34.6714 2.25489 34.5892 2.2214 34.5038 2.22235H10.0621C9.97674 2.2214 9.89457 2.25489 9.83421 2.31525C9.77385 2.37562 9.74035 2.45778 9.74131 2.54316V11.0353L11.1273 13.1155C11.6271 13.8708 11.4629 14.8833 10.7499 15.4418L8.68837 17.0454C8.46798 17.2126 8.40386 17.5163 8.53784 17.7583L8.70587 18.0645C9.24154 19.0832 9.89485 20.0354 10.6525 20.9018H34.5039Z" fill="#11234A"/>
<path d="M10.0622 1.05566V0.905664L10.062 0.905664L10.0622 1.05566ZM34.5038 1.05566L34.504 0.905664H34.5038V1.05566ZM8.57469 2.54316L8.42469 2.54299V2.54316H8.57469ZM8.57469 9.28477L8.44988 9.36797L8.72469 9.78018V9.28477H8.57469ZM7.45701 7.60825L7.33199 7.69113L7.33221 7.69146L7.45701 7.60825ZM5.1237 7.08325L5.20099 7.21181L5.20118 7.21169L5.1237 7.08325ZM2.82423 8.46575L2.90015 8.59513L2.90152 8.59431L2.82423 8.46575ZM1.28307 10.4649L1.13864 10.4244L1.13842 10.4251L1.28307 10.4649ZM8.79057 26.5065L8.68449 26.6126L8.68456 26.6127L8.79057 26.5065ZM22.6692 34.2952L22.6698 34.1452H22.6692V34.2952ZM24.8334 34.0129L24.8725 34.1577L24.8739 34.1573L24.8334 34.0129ZM26.833 32.4735L26.7044 32.3963L26.7037 32.3974L26.833 32.4735ZM28.2137 30.1716L28.0852 30.0943L28.0851 30.0945L28.2137 30.1716ZM27.6887 27.8412L27.6055 27.966L27.6057 27.9661L27.6887 27.8412ZM22.1826 24.1708L22.2659 24.046L22.2654 24.0457L22.1826 24.1708ZM19.8563 24.5483L19.7383 24.4557L19.7379 24.4562L19.8563 24.5483ZM18.2533 26.6091L18.1349 26.517L18.1338 26.5184L18.2533 26.6091ZM17.5393 26.7602L17.6117 26.6289L17.6116 26.6288L17.5393 26.7602ZM17.2342 26.5922L17.3065 26.4608L17.306 26.4605L17.2342 26.5922ZM12.4573 22.8402L12.5634 22.7342L12.4573 22.8402ZM11.7048 22.0673V21.9173H11.3555L11.596 22.1706L11.7048 22.0673ZM34.5038 22.0673L34.5039 21.9173H34.5038V22.0673ZM35.9913 20.5868L36.1413 20.5873V20.5868H35.9913ZM35.9913 2.54316H36.1413V2.54299L35.9913 2.54316ZM16.9723 27.7794L17.0455 27.6485L17.0445 27.6479L16.9723 27.7794ZM16.676 27.6166L16.7482 27.4852L16.7477 27.4849L16.676 27.6166ZM19.1744 27.3256L19.056 27.2335L19.0553 27.2343L19.1744 27.3256ZM20.7774 25.2647L20.6594 25.172L20.659 25.1726L20.7774 25.2647ZM21.5357 25.1415L21.6189 25.0167L21.6183 25.0164L21.5357 25.1415ZM27.0418 28.8119L26.9586 28.9367L26.9586 28.9367L27.0418 28.8119ZM27.2127 29.5702L27.3413 29.6474L27.3414 29.6473L27.2127 29.5702ZM25.8319 31.8721L25.7033 31.7949L25.7024 31.7965L25.8319 31.8721ZM24.5247 32.8871L24.5645 33.0317L24.5658 33.0313L24.5247 32.8871ZM9.61703 25.6788L9.7231 25.5728L9.61703 25.6788ZM2.40997 10.7734L2.2657 10.7323L2.26533 10.7337L2.40997 10.7734ZM3.42436 9.46619L3.49999 9.59574L3.50154 9.59481L3.42436 9.46619ZM5.72622 8.08485L5.64929 7.95608L5.64904 7.95623L5.72622 8.08485ZM6.48453 8.25575L6.60933 8.17253L6.60927 8.17244L6.48453 8.25575ZM10.1566 13.7618L10.2817 13.6791L10.2814 13.6786L10.1566 13.7618ZM10.0335 14.5201L10.1256 14.6385L10.126 14.6382L10.0335 14.5201ZM7.97197 16.1237L8.06327 16.2427L8.06406 16.2421L7.97197 16.1237ZM7.51813 18.3252L7.6495 18.2528L7.64905 18.252L7.51813 18.3252ZM7.68144 18.6216L7.81316 18.5498L7.81281 18.5492L7.68144 18.6216ZM7.68248 18.6235L7.55076 18.6952L7.55078 18.6953L7.68248 18.6235ZM11.633 23.665L11.739 23.559L11.633 23.665ZM16.675 27.6161L16.6031 27.7478L16.6032 27.7478L16.675 27.6161ZM34.8247 20.5868L34.9747 20.5885L34.9763 20.4368H34.8247V20.5868ZM34.5039 20.9018L34.505 20.7518H34.5039V20.9018ZM34.8246 20.5868H34.6746V20.7368H34.8246V20.5868ZM34.8246 2.54316L34.6746 2.54148V2.54316H34.8246ZM34.7317 2.31525L34.6257 2.42132L34.6257 2.42132L34.7317 2.31525ZM34.5038 2.22235V2.37236L34.5055 2.37234L34.5038 2.22235ZM10.0621 2.22235L10.0604 2.37235H10.0621V2.22235ZM9.83421 2.31525L9.94028 2.42132L9.94028 2.42132L9.83421 2.31525ZM9.74131 2.54316H9.89132L9.8913 2.54148L9.74131 2.54316ZM9.74131 11.0353H9.59131V11.0807L9.61648 11.1185L9.74131 11.0353ZM11.1273 13.1155L11.2524 13.0327L11.2521 13.0323L11.1273 13.1155ZM10.7499 15.4418L10.842 15.5602L10.8424 15.5599L10.7499 15.4418ZM8.68837 17.0454L8.77904 17.1649L8.78047 17.1638L8.68837 17.0454ZM8.53784 17.7583L8.66935 17.6861L8.66907 17.6856L8.53784 17.7583ZM8.70587 18.0645L8.83866 17.9947L8.83738 17.9923L8.70587 18.0645ZM10.6525 20.9018L10.5396 21.0006L10.5844 21.0518H10.6525V20.9018ZM10.0622 1.20566H34.5038V0.905664H10.0622V1.20566ZM8.72469 2.54334C8.72555 1.80491 9.32394 1.20652 10.0624 1.20566L10.062 0.905664C9.15818 0.906718 8.42574 1.63915 8.42469 2.54299L8.72469 2.54334ZM8.72469 9.28477V2.54316H8.42469V9.28477H8.72469ZM7.33221 7.69146L8.44988 9.36797L8.6995 9.20156L7.58182 7.52505L7.33221 7.69146ZM5.20118 7.21169C5.9252 6.77496 6.86479 6.98639 7.33199 7.69113L7.58204 7.52537C7.02604 6.68669 5.90787 6.43506 5.04623 6.95481L5.20118 7.21169ZM2.90152 8.59431L5.20099 7.21181L5.04641 6.9547L2.74694 8.3372L2.90152 8.59431ZM1.4275 10.5053C1.65272 9.70204 2.18057 9.01736 2.90014 8.59512L2.74832 8.33638C1.96179 8.7979 1.38482 9.5463 1.13864 10.4244L1.4275 10.5053ZM8.89664 26.4005C1.19197 18.6947 0.609041 13.4855 1.42771 10.5046L1.13842 10.4251C0.279421 13.5529 0.941314 18.8683 8.68449 26.6126L8.89664 26.4005ZM22.6692 34.1452C19.5682 34.1452 15.0244 32.5219 8.89658 26.4004L8.68456 26.6127C14.8416 32.7634 19.4573 34.4452 22.6692 34.4452V34.1452ZM24.7942 33.8681C24.1017 34.0553 23.3872 34.1485 22.6698 34.1452L22.6685 34.4452C23.4127 34.4486 24.154 34.3519 24.8725 34.1577L24.7942 33.8681ZM26.7037 32.3974C26.2806 33.116 25.5959 33.6432 24.7928 33.8685L24.8739 34.1573C25.7515 33.9111 26.4998 33.335 26.9623 32.5496L26.7037 32.3974ZM28.0851 30.0945L26.7044 32.3963L26.9616 32.5507L28.3424 30.2488L28.0851 30.0945ZM27.6057 27.9661C28.3089 28.4332 28.5202 29.3709 28.0852 30.0943L28.3423 30.2489C28.8599 29.388 28.6085 28.2721 27.7717 27.7162L27.6057 27.9661ZM22.0995 24.2957L27.6055 27.966L27.7719 27.7164L22.2658 24.046L22.0995 24.2957ZM19.9744 24.6408C20.4848 23.9896 21.4098 23.8395 22.0999 24.2959L22.2654 24.0457C21.4449 23.503 20.3451 23.6815 19.7383 24.4557L19.9744 24.6408ZM18.3717 26.7012L19.9747 24.6403L19.7379 24.4562L18.1349 26.5171L18.3717 26.7012ZM17.4669 26.8916C17.7745 27.0612 18.1601 26.9797 18.3727 26.6999L18.1338 26.5184C18.0113 26.6796 17.7891 26.7267 17.6117 26.6289L17.4669 26.8916ZM17.1618 26.7236L17.4669 26.8916L17.6116 26.6288L17.3065 26.4608L17.1618 26.7236ZM12.3512 22.9463C14.886 25.481 16.1473 26.1707 17.1624 26.7239L17.306 26.4605C16.3132 25.9194 15.0756 25.2464 12.5634 22.7342L12.3512 22.9463ZM11.596 22.1706C11.8289 22.4158 12.0771 22.6722 12.3512 22.9463L12.5634 22.7342C12.2914 22.4622 12.045 22.2077 11.8136 21.964L11.596 22.1706ZM34.5038 21.9173H11.7048V22.2173H34.5038V21.9173ZM35.8413 20.5862C35.8384 21.3226 35.2404 21.9178 34.5039 21.9173L34.5037 22.2173C35.4054 22.218 36.1378 21.4891 36.1413 20.5873L35.8413 20.5862ZM35.8413 2.54316V20.5868H36.1413V2.54316H35.8413ZM34.5036 1.20566C35.2421 1.20652 35.8405 1.80491 35.8413 2.54334L36.1413 2.54299C36.1403 1.63915 35.4078 0.906718 34.504 0.905664L34.5036 1.20566ZM17.0445 27.6479L16.7482 27.4852L16.6037 27.7481L16.9001 27.9109L17.0445 27.6479ZM19.0553 27.2343C18.5812 27.8522 17.7254 28.0286 17.0455 27.6485L16.8991 27.9103C17.709 28.3632 18.7286 28.1531 19.2934 27.4169L19.0553 27.2343ZM20.659 25.1726L19.056 27.2335L19.2928 27.4177L20.8958 25.3568L20.659 25.1726ZM21.6183 25.0164C21.3069 24.8108 20.8899 24.8785 20.6594 25.172L20.8954 25.3573C21.0294 25.1865 21.2719 25.1472 21.4531 25.2667L21.6183 25.0164ZM27.125 28.6871L21.6189 25.0167L21.4525 25.2664L26.9586 28.9367L27.125 28.6871ZM27.3414 29.6473C27.5369 29.3208 27.4417 28.8982 27.125 28.6871L26.9586 28.9367C27.1421 29.0591 27.1973 29.3039 27.084 29.4931L27.3414 29.6473ZM25.9606 31.9492L27.3413 29.6474L27.084 29.493L25.7033 31.7949L25.9606 31.9492ZM24.5658 33.0313C25.1535 32.8638 25.6537 32.4755 25.9615 31.9476L25.7024 31.7965C25.4335 32.2575 24.9968 32.5965 24.4836 32.7428L24.5658 33.0313ZM9.51096 25.7849C16.8518 33.1263 21.7311 33.8109 24.5645 33.0317L24.4849 32.7424C21.8035 33.4799 17.0309 32.8812 9.7231 25.5728L9.51096 25.7849ZM2.26533 10.7337C1.48795 13.5647 2.17004 18.4434 9.51096 25.7849L9.7231 25.5728C2.4153 18.2644 1.81893 13.4923 2.55462 10.8131L2.26533 10.7337ZM3.34874 9.33665C2.82112 9.64465 2.43306 10.1447 2.26571 10.7323L2.55424 10.8145C2.70038 10.3014 3.03925 9.86469 3.49998 9.59573L3.34874 9.33665ZM5.64904 7.95623L3.34717 9.33757L3.50154 9.59481L5.80341 8.21347L5.64904 7.95623ZM6.60927 8.17244C6.39801 7.85611 5.97579 7.76103 5.64929 7.95608L5.80315 8.21362C5.99249 8.10051 6.23733 8.15568 6.35979 8.33906L6.60927 8.17244ZM10.2814 13.6786L6.60933 8.17253L6.35974 8.33898L10.0318 13.8451L10.2814 13.6786ZM10.126 14.6382C10.42 14.408 10.4876 13.9905 10.2817 13.6791L10.0315 13.8446C10.1512 14.0256 10.1118 14.2682 9.94099 14.402L10.126 14.6382ZM8.06406 16.2421L10.1256 14.6385L9.94138 14.4017L7.87987 16.0053L8.06406 16.2421ZM7.64905 18.252C7.26897 17.5723 7.4454 16.7167 8.06327 16.2427L7.88066 16.0047C7.1446 16.5694 6.93439 17.5887 7.38721 18.3984L7.64905 18.252ZM7.81281 18.5492L7.6495 18.2528L7.38676 18.3976L7.55007 18.694L7.81281 18.5492ZM7.8142 18.5517L7.81316 18.5498L7.54972 18.6933L7.55076 18.6952L7.8142 18.5517ZM11.739 23.559C9.10889 20.9295 8.39137 19.6103 7.81417 18.5517L7.55078 18.6953C8.13985 19.7757 8.87392 21.1188 11.5269 23.7711L11.739 23.559ZM16.7468 27.4844C15.6887 26.9071 14.37 26.1893 11.739 23.559L11.5269 23.7711C14.1807 26.4243 15.5232 27.1585 16.6031 27.7478L16.7468 27.4844ZM16.7477 27.4849L16.7467 27.4844L16.6032 27.7478L16.6042 27.7483L16.7477 27.4849ZM34.6747 20.5852C34.6737 20.678 34.5978 20.7525 34.505 20.7518L34.5028 21.0518C34.7608 21.0537 34.9719 20.8466 34.9747 20.5885L34.6747 20.5852ZM34.8246 20.7368H34.8247V20.4368H34.8246V20.7368ZM34.6746 2.54316V20.5868H34.9746V2.54316H34.6746ZM34.6257 2.42132C34.6575 2.45313 34.6751 2.49645 34.6746 2.54148L34.9746 2.54485C34.976 2.41911 34.9267 2.2981 34.8378 2.20919L34.6257 2.42132ZM34.5055 2.37234C34.5505 2.37184 34.5938 2.38951 34.6257 2.42132L34.8378 2.20919C34.7489 2.12028 34.6279 2.07095 34.5021 2.07236L34.5055 2.37234ZM10.0621 2.37235H34.5038V2.07235H10.0621V2.37235ZM9.94028 2.42132C9.97209 2.38951 10.0154 2.37184 10.0604 2.37234L10.0638 2.07236C9.93807 2.07095 9.81705 2.12028 9.72814 2.20919L9.94028 2.42132ZM9.8913 2.54148C9.8908 2.49646 9.90846 2.45313 9.94028 2.42132L9.72815 2.20919C9.63924 2.2981 9.58991 2.41911 9.59132 2.54485L9.8913 2.54148ZM9.89131 11.0353V2.54316H9.59131V11.0353H9.89131ZM11.2521 13.0323L9.86614 10.9521L9.61648 11.1185L11.0025 13.1987L11.2521 13.0323ZM10.8424 15.5599C11.6169 14.9532 11.7954 13.8532 11.2524 13.0327L11.0022 13.1983C11.4589 13.8884 11.3088 14.8135 10.6574 15.3237L10.8424 15.5599ZM8.78047 17.1638L10.842 15.5602L10.6578 15.3234L8.59627 16.927L8.78047 17.1638ZM8.66907 17.6856C8.57121 17.5088 8.61803 17.287 8.77903 17.1649L8.59771 16.9259C8.31793 17.1382 8.23651 17.5237 8.40662 17.8309L8.66907 17.6856ZM8.83738 17.9923L8.66935 17.6861L8.40634 17.8304L8.57436 18.1367L8.83738 17.9923ZM10.7654 20.8031C10.0155 19.9455 9.36884 19.003 8.83864 17.9947L8.57311 18.1343C9.11423 19.1634 9.77421 20.1253 10.5396 21.0006L10.7654 20.8031ZM34.5039 20.7518H10.6525V21.0518H34.5039V20.7518Z" fill="#11234A"/>
<path d="M32.4949 3.75656L22.7456 11.1503C22.4698 11.3507 22.0963 11.3507 21.8205 11.1503L12.0748 3.75656C11.818 3.56181 11.452 3.61212 11.2573 3.86888C11.0625 4.12564 11.1129 4.4917 11.3696 4.68639L21.1165 12.0795C21.8099 12.5918 22.7564 12.5918 23.4498 12.0795L33.1996 4.68639C33.323 4.59287 33.4042 4.4541 33.4251 4.3007C33.4461 4.14731 33.4053 3.99186 33.3116 3.8686C33.1169 3.61233 32.7515 3.56222 32.4949 3.75656Z" fill="#11234A" stroke="#11234A" stroke-width="0.3"/>
<path d="M17.3052 12.1285L11.3295 18.5277C11.1098 18.7634 11.1228 19.1326 11.3584 19.3523C11.594 19.572 11.9632 19.5591 12.1829 19.3234L18.1586 12.9214C18.3561 12.6832 18.3332 12.3323 18.1066 12.1217C17.8799 11.9111 17.5282 11.9141 17.3052 12.1285Z" fill="#11234A" stroke="#11234A" stroke-width="0.3"/>
<path d="M27.3002 12.1286C27.0804 11.8929 26.7113 11.8799 26.4756 12.0997C26.24 12.3194 26.227 12.6886 26.4468 12.9243L32.4207 19.3234C32.6404 19.5591 33.0095 19.5721 33.2452 19.3523C33.4809 19.1326 33.4939 18.7634 33.2741 18.5277L27.3002 12.1286Z" fill="#11234A" stroke="#11234A" stroke-width="0.3"/>
</svg>
