<svg width="40" height="41" viewBox="0 0 40 41" fill="none" xmlns="http://www.w3.org/2000/svg">
<path fill-rule="evenodd" clip-rule="evenodd" d="M18.6849 0.0951692C19.379 -0.0225728 20.0872 -0.0311212 20.784 0.0698466C31.4763 0.498718 39.9373 9.26694 39.9848 19.9678V19.9758V19.9811V20.0291C39.9786 23.9219 38.8372 27.7285 36.7002 30.9823C36.6682 31.0565 36.6231 31.1241 36.567 31.1821C32.8704 36.7013 26.6636 40.0119 20.0208 40.0076C20.0174 40.0076 20.0142 40.0085 20.011 40.0093C20.008 40.0101 20.0051 40.0109 20.0022 40.0109C19.9993 40.0109 19.9966 40.0101 19.9937 40.0093L19.9894 40.0082C19.9877 40.0078 19.986 40.0076 19.9842 40.0076C19.2863 40.0084 18.589 39.9717 17.895 39.8977C11.4803 39.2109 5.79107 35.4719 2.61567 29.8562C-0.559736 24.2406 -0.831027 17.4379 1.88696 11.5872L1.93688 11.4793C2.14099 10.9906 2.40494 10.529 2.72276 10.1054C2.73381 10.0161 2.76357 9.93009 2.81002 9.85299C6.16792 4.18081 12.1075 0.529847 18.6849 0.0951692ZM3.09373 12.1519C1.95107 14.6208 1.35881 17.3086 1.35817 20.029C1.33397 28.5365 7.08865 35.9747 15.3296 38.0875C15.1865 37.9977 15.0426 37.9057 14.9028 37.8052C13.9987 37.2424 13.4196 36.2802 13.3457 35.2178C13.3756 34.6045 13.5533 34.0074 13.8639 33.4777C13.9673 33.2517 14.0436 33.0143 14.091 32.7704C14.1766 32.2402 14.4 31.7419 14.739 31.3253C15.0467 31.0144 15.4145 30.7695 15.8199 30.6053C16.0123 30.5221 16.1959 30.4197 16.3679 30.2997C16.7586 29.9784 17.0836 29.5847 17.3249 29.1402C17.4507 28.9177 17.5687 28.6607 17.6925 28.385C17.9253 27.7863 18.2552 27.2301 18.6688 26.7387C18.8606 26.5379 19.0859 26.3723 19.3348 26.2492V24.4837L19.2835 24.4724C17.8324 24.1061 16.3759 23.7406 14.9187 23.3882L14.9173 23.3879C13.8696 23.1341 12.1167 22.7096 11.3305 21.2924C11.0802 20.794 10.9116 20.2586 10.831 19.7068C10.7778 19.2432 10.6278 18.796 10.3907 18.3941C9.86309 17.8823 9.1893 17.5474 8.46276 17.4358L8.33954 17.4005C7.43252 17.1222 6.18913 16.6247 5.7376 15.4692C5.48865 14.559 5.58768 13.5886 6.01534 12.7473C6.28567 12.2102 6.39792 11.6075 6.33897 11.0091C6.28559 10.7309 6.10591 10.4932 5.85284 10.3658C5.67502 10.287 5.48196 10.2483 5.28744 10.2526C4.97018 10.2567 4.65728 10.3265 4.36841 10.4578C4.20841 10.5257 4.06301 10.6238 3.94018 10.7468C3.59518 11.1244 3.32534 11.5641 3.14502 12.0428L3.09373 12.1519ZM19.3395 38.6603C18.9985 38.6479 18.6655 38.627 18.3405 38.5977C17.8227 38.0691 17.2254 37.6247 16.5703 37.2805C16.252 37.0953 15.9516 36.9195 15.6799 36.7251C15.1437 36.3888 14.7783 35.8376 14.6777 35.2127C14.7149 34.8158 14.8412 34.4324 15.0473 34.0911C15.2015 33.7715 15.3152 33.434 15.3856 33.0862C15.4291 32.7749 15.5455 32.4783 15.7253 32.2205C15.9194 32.0414 16.1453 31.9002 16.3912 31.8043C16.6703 31.6818 16.9351 31.5292 17.1811 31.3494C17.7088 30.9225 18.1485 30.3971 18.4757 29.8024C18.6332 29.5295 18.7681 29.2313 18.8987 28.9424L18.8987 28.9424L18.8987 28.9424L18.9046 28.9294C19.0337 28.6357 19.1788 28.3493 19.3395 28.0716V38.6603H19.3395ZM19.3174 23.1056L19.3395 23.1112V22.1828C19.1607 21.9355 18.9547 21.709 18.7254 21.5075C18.6374 21.4408 18.5444 21.3719 18.4504 21.3022L18.3778 21.2485C17.4328 20.5512 16.256 19.6828 16.256 18.179C16.2544 17.2623 16.8203 16.4403 17.6772 16.1145C18.2176 15.9152 18.8154 15.9417 19.3362 16.1877V3.97646C19.3104 3.97881 19.286 3.97998 19.2615 3.98115C19.2372 3.98231 19.2128 3.98348 19.187 3.98581C18.8912 4.0138 18.5889 4.04178 18.2759 4.04178C18.1953 4.04178 18.1148 4.03985 18.0328 4.03581C16.6428 3.9671 15.3467 3.31396 14.4645 2.23767C10.6794 3.39904 7.3676 5.74614 5.01768 8.93267C5.50172 8.88428 5.98986 8.96541 6.4322 9.16775C7.04059 9.46388 7.48155 10.0203 7.63099 10.6802C7.77268 11.5376 7.64663 12.4177 7.27002 13.2009C6.9751 13.7467 6.87478 14.3766 6.98567 14.987C7.22413 15.599 8.09051 15.9267 8.72188 16.1192L8.83107 16.1505C9.84607 16.324 10.7735 16.8328 11.465 17.5957C11.8264 18.1533 12.0579 18.7852 12.1423 19.4444C12.1998 19.8597 12.3199 20.2639 12.4986 20.6432C12.9641 21.4816 14.1049 21.8186 15.237 22.0916C16.6012 22.4214 17.96 22.7637 19.3162 23.1054L19.3165 23.1054L19.3174 23.1056ZM19.3395 20.3041L19.1716 20.179C18.2173 19.4744 17.5913 18.9542 17.5913 18.1737C17.5919 17.8092 17.819 17.4834 18.1607 17.3565C18.4371 17.2486 18.6836 17.3479 19.1317 17.5457C19.1801 17.5671 19.2257 17.5859 19.2717 17.6048C19.2941 17.614 19.3166 17.6233 19.3395 17.6329V20.3041H19.3395ZM19.2335 2.64728C19.2688 2.64441 19.3042 2.64154 19.3395 2.63848V1.40452C18.1947 1.44517 17.0562 1.59138 15.9383 1.84138C16.5444 2.35944 17.304 2.66372 18.1001 2.7071C18.4224 2.71493 18.7449 2.69985 19.0651 2.66178C19.1205 2.65646 19.1769 2.65188 19.2335 2.64728ZM38.6347 19.3078L31.3183 19.3098C31.2791 16.7253 30.934 14.1545 30.2901 11.6511C32.154 11.2791 33.9827 10.7489 35.7564 10.0661C37.518 12.8371 38.5114 16.0265 38.6347 19.3078ZM29.9197 10.3678C31.6448 10.0302 33.3402 9.55565 34.9898 8.94864C32.5006 5.58783 28.957 3.15799 24.9249 2.04719C27.056 3.8646 28.7936 6.78356 29.9197 10.3678ZM20.6714 1.39848H20.6927C20.7068 1.40129 20.722 1.40318 20.7376 1.40513C20.7516 1.40686 20.7658 1.40863 20.7799 1.41114C20.7979 1.41581 20.8172 1.42049 20.8352 1.4238C24.1378 2.03315 26.9781 5.61944 28.5865 10.6182C25.9699 11.0528 23.3237 11.2844 20.6714 11.3108V1.39848ZM28.9674 11.9122C26.2256 12.373 23.4516 12.6153 20.6714 12.6368V19.3098H29.9864C29.9433 16.8121 29.6012 14.3286 28.9674 11.9122ZM20.6714 27.3135V23.7619C20.6741 23.7298 20.6741 23.6974 20.6714 23.6653V20.6418H29.9857C29.9478 23.1386 29.6148 25.6222 28.9933 28.0407C26.243 27.5778 23.4603 27.3349 20.6713 27.3141V27.3135H20.6714ZM20.6714 28.6401V38.5518V38.5524C24.0632 38.035 26.9854 34.4594 28.6184 29.3361C25.9915 28.8987 23.3345 28.6661 20.6714 28.6401ZM32.537 33.834C30.3046 35.8636 27.6115 37.3189 24.6905 38.0743C26.9036 36.2722 28.7343 33.2826 29.9078 29.5785C31.6606 29.9198 33.3825 30.404 35.0564 31.0263C34.3138 32.045 33.4697 32.9858 32.537 33.834ZM30.282 28.2938C32.1678 28.6697 34.0172 29.2087 35.8096 29.9048C37.5501 27.1194 38.5252 23.9243 38.6366 20.6418H31.3203C31.2805 23.2247 30.932 25.7936 30.282 28.2938Z" fill="#11234A"/>
</svg>
