<svg width="313" height="84" viewBox="0 0 313 84" fill="none" xmlns="http://www.w3.org/2000/svg">
<path d="M112 57H113.65V38.28L121.72 57H122.92L131.02 38.28V57H132.64V36H130.33L122.35 54.54L114.37 36H112V57ZM138.631 36V57H140.341V36H138.631ZM160.016 37.41V36H146.336V57H160.016V55.59H148.046V46.68H158.816V45.27H148.046V37.41H160.016ZM165.842 41.4C165.842 38.07 167.462 36.75 171.482 36.75C175.532 36.75 177.182 38.28 177.182 42H178.742C178.742 37.38 176.582 35.4 171.482 35.4C166.382 35.4 164.222 37.26 164.222 41.61C164.222 49.11 177.422 45.09 177.422 51.6C177.422 54.9 175.742 56.25 171.482 56.25C167.192 56.25 165.482 54.75 165.482 51H163.922C163.922 55.62 166.172 57.6 171.482 57.6C176.792 57.6 179.042 55.74 179.042 51.39C179.042 43.53 165.842 47.49 165.842 41.4ZM185.149 41.4C185.149 38.07 186.769 36.75 190.789 36.75C194.839 36.75 196.489 38.28 196.489 42H198.049C198.049 37.38 195.889 35.4 190.789 35.4C185.689 35.4 183.529 37.26 183.529 41.61C183.529 49.11 196.729 45.09 196.729 51.6C196.729 54.9 195.049 56.25 190.789 56.25C186.499 56.25 184.789 54.75 184.789 51H183.229C183.229 55.62 185.479 57.6 190.789 57.6C196.099 57.6 198.349 55.74 198.349 51.39C198.349 43.53 185.149 47.49 185.149 41.4ZM217.656 36V54.84L205.566 36H203.436V57H205.086V38.16L217.176 57H219.276V36H217.656ZM238.942 37.41V36H225.262V57H238.942V55.59H226.972V46.68H237.742V45.27H226.972V37.41H238.942ZM257.458 57H259.288L254.698 48.63C257.968 48.03 259.408 45.99 259.408 42.42C259.408 38.19 257.338 35.97 252.448 35.97H243.748V56.97H245.458V48.78H252.988L257.458 57ZM245.458 47.46V37.41H252.388C256.198 37.41 257.728 38.94 257.728 42.45C257.728 45.9 256.168 47.46 252.388 47.46H245.458Z" fill="white"/>
<path opacity="0.408668" d="M277.71 36H276V57H277.71V46.89L287.94 57H290.13L279.21 46.2L289.53 36H287.34L277.71 45.51V36ZM301.283 46.98H308.723C308.723 53.43 306.533 56.1 301.283 56.1C295.703 56.1 293.393 53.31 293.393 46.5C293.393 39.69 295.703 36.9 301.283 36.9C305.393 36.9 307.493 38.55 308.423 42.6H310.043C309.053 37.56 306.413 35.4 301.283 35.4C294.503 35.4 291.623 38.73 291.623 46.5C291.623 54.27 294.503 57.6 301.283 57.6C307.643 57.6 310.343 54.27 310.343 46.5V45.63H301.283V46.98Z" fill="white"/>
<rect y="7.2998" width="16.9863" height="76.5622" fill="white"/>
<rect x="63.0137" y="7.2998" width="16.9863" height="76.5622" fill="white"/>
<path opacity="0.456008" fill-rule="evenodd" clip-rule="evenodd" d="M5.66113 7.31567L22.4533 7.31567L48.0222 64.1713L31.0862 64.1713L5.66113 7.31567Z" fill="white"/>
<path opacity="0.456008" fill-rule="evenodd" clip-rule="evenodd" d="M73.4473 7.31567L56.6551 7.31567L31.0862 64.1713L48.0222 64.1713L73.4473 7.31567Z" fill="white"/>
<path fill-rule="evenodd" clip-rule="evenodd" d="M31.0859 64.1715L48.0219 64.1715L39.5539 45.3418L31.0859 64.1715Z" fill="white"/>
</svg>
