<svg width="261" height="274" viewBox="0 0 261 274" fill="none" xmlns="http://www.w3.org/2000/svg">
<path d="M49.9546 62.7891H24.8242L20.4355 77H0.843262L28.7427 0.929688H45.9839L74.0923 77H54.3955L49.9546 62.7891ZM29.2129 48.6304H45.5659L37.3633 22.2461L29.2129 48.6304Z" fill="white"/>
<path d="M101.231 62.8936H133.153V77H82.8926V0.929688H101.231V62.8936Z" fill="white"/>
<path d="M162.434 62.8936H194.357V77H144.096V0.929688H162.434V62.8936Z" fill="white"/>
<path d="M252.477 44.7642H223.637V62.8936H257.702V77H205.299V0.929688H257.806V15.0884H223.637V31.1279H252.477V44.7642Z" fill="white"/>
<path d="M32.7871 137.605C31.4688 139.07 29.54 140.25 27.001 141.146C24.4619 142.041 21.6787 142.488 18.6514 142.488C13.9964 142.488 10.2773 141.064 7.49414 138.216C4.71094 135.368 3.22168 131.404 3.02637 126.326L3.00195 123.25C3.00195 119.751 3.62044 116.699 4.85742 114.095C6.0944 111.474 7.86035 109.464 10.1553 108.064C12.4665 106.648 15.1357 105.94 18.1631 105.94C22.5902 105.94 26.0244 106.958 28.4658 108.992C30.9235 111.01 32.3558 114.03 32.7627 118.05H24.5107C24.2178 116.064 23.583 114.648 22.6064 113.802C21.6299 112.955 20.2464 112.532 18.4561 112.532C16.3076 112.532 14.6475 113.444 13.4756 115.267C12.3037 117.09 11.7096 119.694 11.6934 123.079V125.228C11.6934 128.776 12.2956 131.445 13.5 133.235C14.7207 135.009 16.6331 135.896 19.2373 135.896C21.4671 135.896 23.1273 135.4 24.2178 134.407V128.89H18.2607V123.006H32.7871V137.605Z" fill="#CA1F1F"/>
<path d="M84.8135 126.937H71.3369V135.408H87.2549V142H62.7676V106.453H87.3037V113.069H71.3369V120.564H84.8135V126.937Z" fill="#CA1F1F"/>
<path d="M144.848 137.605C143.529 139.07 141.601 140.25 139.062 141.146C136.522 142.041 133.739 142.488 130.712 142.488C126.057 142.488 122.338 141.064 119.555 138.216C116.771 135.368 115.282 131.404 115.087 126.326L115.062 123.25C115.062 119.751 115.681 116.699 116.918 114.095C118.155 111.474 119.921 109.464 122.216 108.064C124.527 106.648 127.196 105.94 130.224 105.94C134.651 105.94 138.085 106.958 140.526 108.992C142.984 111.01 144.416 114.03 144.823 118.05H136.571C136.278 116.064 135.644 114.648 134.667 113.802C133.69 112.955 132.307 112.532 130.517 112.532C128.368 112.532 126.708 113.444 125.536 115.267C124.364 117.09 123.77 119.694 123.754 123.079V125.228C123.754 128.776 124.356 131.445 125.561 133.235C126.781 135.009 128.694 135.896 131.298 135.896C133.528 135.896 135.188 135.4 136.278 134.407V128.89H130.321V123.006H144.848V137.605Z" fill="#CA1F1F"/>
<path d="M196.874 126.937H183.397V135.408H199.315V142H174.828V106.453H199.364V113.069H183.397V120.564H196.874V126.937Z" fill="#CA1F1F"/>
<path d="M257.494 142H248.974L236.376 119.881V142H227.807V106.453H236.376L248.949 128.572V106.453H257.494V142Z" fill="#CA1F1F"/>
<path d="M87.4424 236.085L99.103 172.336H123.402L101.826 274H76.4102L62.7944 216.046L49.458 274H24.1118L2.46631 172.336H26.835L38.4956 236.085L52.4604 172.336H73.2681L87.4424 236.085Z" fill="white"/>
<path d="M159.082 274H134.644V172.336H159.082V274Z" fill="white"/>
<path d="M215.291 206.131L231.909 172.336H259.908L231.49 222.749L260.676 274H232.397L215.291 239.577L198.184 274H169.975L199.091 222.749L170.743 172.336H198.672L215.291 206.131Z" fill="white"/>
</svg>
