<svg width="262" height="331" viewBox="0 0 262 331" fill="none" xmlns="http://www.w3.org/2000/svg">
<path d="M49.9546 84.7891H24.8242L20.4355 99H0.843262L28.7427 22.9297H45.9839L74.0923 99H54.3955L49.9546 84.7891ZM29.2129 70.6304H45.5659L37.3633 44.2461L29.2129 70.6304ZM101.231 84.8936H133.153V99H82.8926V22.9297H101.231V84.8936ZM162.434 84.8936H194.357V99H144.096V22.9297H162.434V84.8936ZM252.477 66.7642H223.637V84.8936H257.702V99H205.299V22.9297H257.806V37.0884H223.637V53.1279H252.477V66.7642Z" fill="white"/>
<path d="M32.7871 159.605C31.4688 161.07 29.54 162.25 27.001 163.146C24.4619 164.041 21.6787 164.488 18.6514 164.488C13.9964 164.488 10.2773 163.064 7.49414 160.216C4.71094 157.368 3.22168 153.404 3.02637 148.326L3.00195 145.25C3.00195 141.751 3.62044 138.699 4.85742 136.095C6.0944 133.474 7.86035 131.464 10.1553 130.064C12.4665 128.648 15.1357 127.94 18.1631 127.94C22.5902 127.94 26.0244 128.958 28.4658 130.992C30.9235 133.01 32.3558 136.03 32.7627 140.05H24.5107C24.2178 138.064 23.583 136.648 22.6064 135.802C21.6299 134.955 20.2464 134.532 18.4561 134.532C16.3076 134.532 14.6475 135.444 13.4756 137.267C12.3037 139.09 11.7096 141.694 11.6934 145.079V147.228C11.6934 150.776 12.2956 153.445 13.5 155.235C14.7207 157.009 16.6331 157.896 19.2373 157.896C21.4671 157.896 23.1273 157.4 24.2178 156.407V150.89H18.2607V145.006H32.7871V159.605ZM84.8135 148.937H71.3369V157.408H87.2549V164H62.7676V128.453H87.3037V135.069H71.3369V142.564H84.8135V148.937ZM144.848 159.605C143.529 161.07 141.601 162.25 139.062 163.146C136.522 164.041 133.739 164.488 130.712 164.488C126.057 164.488 122.338 163.064 119.555 160.216C116.771 157.368 115.282 153.404 115.087 148.326L115.062 145.25C115.062 141.751 115.681 138.699 116.918 136.095C118.155 133.474 119.921 131.464 122.216 130.064C124.527 128.648 127.196 127.94 130.224 127.94C134.651 127.94 138.085 128.958 140.526 130.992C142.984 133.01 144.416 136.03 144.823 140.05H136.571C136.278 138.064 135.644 136.648 134.667 135.802C133.69 134.955 132.307 134.532 130.517 134.532C128.368 134.532 126.708 135.444 125.536 137.267C124.364 139.09 123.77 141.694 123.754 145.079V147.228C123.754 150.776 124.356 153.445 125.561 155.235C126.781 157.009 128.694 157.896 131.298 157.896C133.528 157.896 135.188 157.4 136.278 156.407V150.89H130.321V145.006H144.848V159.605ZM196.874 148.937H183.397V157.408H199.315V164H174.828V128.453H199.364V135.069H183.397V142.564H196.874V148.937ZM257.494 164H248.974L236.376 141.881V164H227.807V128.453H236.376L248.949 150.572V128.453H257.494V164Z" fill="#CA1F1F"/>
<path d="M87.4424 258.085L99.103 194.336H123.402L101.826 296H76.4102L62.7944 238.046L49.458 296H24.1118L2.46631 194.336H26.835L38.4956 258.085L52.4604 194.336H73.2681L87.4424 258.085ZM159.082 296H134.644V194.336H159.082V296ZM215.291 228.131L231.909 194.336H259.908L231.49 244.749L260.676 296H232.397L215.291 261.577L198.184 296H169.975L199.091 244.749L170.743 194.336H198.672L215.291 228.131Z" fill="white"/>
</svg>
